M48
; DRILL file {KiCad 9.0.6} date 2025-12-17T18:43:26-0500
; FORMAT={-:-/ absolute / metric / decimal}
; #@! TF.CreationDate,2025-12-17T18:43:26-05:00
; #@! TF.GenerationSoftware,Kicad,Pcbnew,9.0.6
; #@! TF.FileFunction,Plated,1,2,PTH
FMAT,2
METRIC
; #@! TA.AperFunction,Plated,PTH,ViaDrill
T1C0.300
; #@! TA.AperFunction,Plated,PTH,ComponentDrill
T2C0.889
; #@! TA.AperFunction,Plated,PTH,ComponentDrill
T3C1.500
%
G90
G05
T1
X106.2Y-67.5
X110.2Y-60.2
T2
X99.536Y-43.748
X99.536Y-46.288
X99.536Y-48.828
X99.536Y-51.368
X99.536Y-53.908
X99.536Y-56.448
X99.536Y-58.988
X114.776Y-43.748
X114.776Y-46.288
X114.776Y-48.828
X114.776Y-51.368
X114.776Y-53.908
X114.776Y-56.448
X114.776Y-58.988
T3
X93.821Y-71.279
X93.821Y-90.329
X100.171Y-68.739
X100.171Y-87.789
X112.871Y-71.279
X112.871Y-90.329
X119.221Y-68.739
X119.221Y-87.789
M30
